<svg width="181" height="55" viewBox="0 0 181 55" fill="none" xmlns="http://www.w3.org/2000/svg">
<path d="M24.8926 2.25977C11.1588 2.25977 0.0253906 13.3932 0.0253906 27.127C0.0253906 40.8608 11.1588 51.9942 24.8926 51.9942C37.2144 51.9942 47.4429 43.0326 49.416 31.2715H49.2376C47.3972 38.4218 40.9064 43.7052 33.1817 43.7052C24.0259 43.7052 16.6035 36.2829 16.6035 27.127C16.6035 17.9711 24.0259 10.5488 33.1817 10.5488C40.9064 10.5488 47.3972 15.8322 49.2376 22.9825H49.416C47.4429 11.2214 37.2144 2.25977 24.8926 2.25977Z" fill="#A4BCFD"/>
<path d="M0.0253906 27.127C0.0253906 13.3932 11.1588 2.25977 24.8926 2.25977C37.2143 2.25977 47.4429 11.2214 49.416 22.9825H32.6594C30.8191 15.8322 24.3283 10.5488 16.6035 10.5488C7.44768 10.5488 0.0253906 17.9711 0.0253906 27.127Z" fill="#3538CD"/>
<path d="M0.0253906 27.1269C0.0253906 40.8607 11.1588 51.9941 24.8926 51.9941C37.2143 51.9941 47.4429 43.0325 49.416 31.2714H32.6594C30.8191 38.4217 24.3283 43.7051 16.6035 43.7051C7.44768 43.7051 0.0253906 36.2828 0.0253906 27.1269Z" fill="#3538CD"/>
<path d="M85.2963 23.1785C84.5882 18.0648 80.6545 15.0977 75.552 15.0977C69.5391 15.0977 65.0098 19.4809 65.0098 26.9212C65.0098 34.3502 69.4829 38.7447 75.552 38.7447C81.0254 38.7447 84.6556 35.2043 85.2963 30.8099L81.0929 30.7874C80.5646 33.4848 78.3618 35.002 75.6082 35.002C71.8768 35.002 69.2019 32.2035 69.2019 26.9212C69.2019 21.7287 71.8544 18.8403 75.6194 18.8403C78.418 18.8403 80.6096 20.425 81.0929 23.1785H85.2963Z" fill="black"/>
<path d="M93.9026 38.7784C96.6112 38.7784 98.2296 37.5084 98.9714 36.0585H99.1063V38.43H103.017V26.8762C103.017 22.3131 99.2973 20.942 96.0043 20.942C92.3741 20.942 89.5868 22.5604 88.6877 25.7073L92.4865 26.2468C92.8911 25.0667 94.0375 24.0552 96.0268 24.0552C97.9149 24.0552 98.9489 25.0218 98.9489 26.7189V26.7863C98.9489 27.9551 97.7239 28.0113 94.6781 28.3373C91.3288 28.6969 88.1257 29.6972 88.1257 33.5859C88.1257 36.9801 90.6095 38.7784 93.9026 38.7784ZM94.9591 35.7888C93.262 35.7888 92.0481 35.0133 92.0481 33.5185C92.0481 31.9563 93.4081 31.3044 95.2288 31.0459C96.2965 30.8998 98.4319 30.63 98.9602 30.203V32.2372C98.9602 34.1591 97.4092 35.7888 94.9591 35.7888Z" fill="black"/>
<path d="M115.729 21.1668H112.323V17.0308H108.255V21.1668H105.805V24.3137H108.255V33.9119C108.232 37.1599 110.593 38.7559 113.65 38.666C114.807 38.6323 115.605 38.4075 116.044 38.2614L115.358 35.0807C115.133 35.1369 114.672 35.2381 114.167 35.2381C113.144 35.2381 112.323 34.8784 112.323 33.2375V24.3137H115.729V21.1668Z" fill="black"/>
<path d="M124.099 38.7784C126.808 38.7784 128.426 37.5084 129.168 36.0585H129.303V38.43H133.214V26.8762C133.214 22.3131 129.494 20.942 126.201 20.942C122.571 20.942 119.783 22.5604 118.884 25.7073L122.683 26.2468C123.088 25.0667 124.234 24.0552 126.223 24.0552C128.111 24.0552 129.145 25.0218 129.145 26.7189V26.7863C129.145 27.9551 127.92 28.0113 124.875 28.3373C121.525 28.6969 118.322 29.6972 118.322 33.5859C118.322 36.9801 120.806 38.7784 124.099 38.7784ZM125.156 35.7888C123.459 35.7888 122.245 35.0133 122.245 33.5185C122.245 31.9563 123.605 31.3044 125.425 31.0459C126.493 30.8998 128.628 30.63 129.157 30.203V32.2372C129.157 34.1591 127.606 35.7888 125.156 35.7888Z" fill="black"/>
<path d="M141.374 15.4124H137.305V38.43H141.374V15.4124Z" fill="black"/>
<path d="M153.087 38.7671C158.145 38.7671 161.359 35.2043 161.359 29.8658C161.359 24.516 158.145 20.942 153.087 20.942C148.03 20.942 144.816 24.516 144.816 29.8658C144.816 35.2043 148.03 38.7671 153.087 38.7671ZM153.11 35.5078C150.311 35.5078 148.94 33.0127 148.94 29.8546C148.94 26.6964 150.311 24.1676 153.11 24.1676C155.864 24.1676 157.235 26.6964 157.235 29.8546C157.235 33.0127 155.864 35.5078 153.11 35.5078Z" fill="black"/>
<path d="M172.32 45.2633C176.985 45.2633 180.424 43.1279 180.424 38.7109V21.1668H176.411V24.0215H176.187C175.568 22.7739 174.276 20.942 171.23 20.942C167.24 20.942 164.105 24.0664 164.105 29.7422C164.105 35.3729 167.24 38.1827 171.219 38.1827C174.175 38.1827 175.557 36.598 176.187 35.328H176.389V38.5985C176.389 41.1386 174.703 42.1838 172.388 42.1838C169.938 42.1838 168.859 41.0262 168.364 40.0147L164.7 40.9026C165.442 43.319 167.926 45.2633 172.32 45.2633ZM172.354 34.9908C169.668 34.9908 168.252 32.9003 168.252 29.7197C168.252 26.584 169.645 24.28 172.354 24.28C174.973 24.28 176.411 26.4491 176.411 29.7197C176.411 33.0127 174.95 34.9908 172.354 34.9908Z" fill="black"/>
</svg>
