<svg width="208" height="55" viewBox="0 0 208 55" fill="none" xmlns="http://www.w3.org/2000/svg">
<path d="M18.1345 37.7855C27.9443 37.7855 35.8968 29.833 35.8968 20.0232C35.8968 18.9114 35.7947 17.8235 35.5992 16.7683C34.544 16.5728 33.4561 16.4707 32.3443 16.4707C22.5345 16.4707 14.582 24.4232 14.582 34.233C14.582 35.3448 14.6842 36.4327 14.8796 37.4879C15.9348 37.6833 17.0227 37.7855 18.1345 37.7855Z" fill="#175CD3"/>
<path fill-rule="evenodd" clip-rule="evenodd" d="M14.8785 37.4888C6.62314 35.9599 0.371094 28.7221 0.371094 20.024C0.371094 10.2142 8.32355 2.26172 18.1334 2.26172C26.8315 2.26172 34.0693 8.51377 35.5982 16.7691C34.543 16.5737 33.455 16.4716 32.3433 16.4716C22.5334 16.4716 14.5809 24.424 14.5809 34.2339C14.5809 35.3457 14.6831 36.4336 14.8785 37.4888Z" fill="#1570EF"/>
<path fill-rule="evenodd" clip-rule="evenodd" d="M18.1338 37.7867C27.9437 37.7867 35.8961 29.8343 35.8961 20.0244C35.8961 18.9127 35.794 17.8247 35.5986 16.7695C43.8539 18.2984 50.106 25.5362 50.106 34.2343C50.106 44.0441 42.1535 51.9966 32.3437 51.9966C23.6456 51.9966 16.4078 45.7445 14.8789 37.4892C15.9341 37.6846 17.022 37.7867 18.1338 37.7867Z" fill="#2E90FA"/>
<path d="M84.2739 32.6714C83.6409 34.7181 82.5332 36.2478 80.9507 37.2605C79.3683 38.2522 77.522 38.7481 75.4121 38.7481C73.3444 38.7481 71.5509 38.3155 70.0317 37.4504C68.5337 36.5854 67.3732 35.351 66.5503 33.7475C65.7485 32.1439 65.3477 30.2239 65.3477 27.9873C65.3477 25.7508 65.7591 23.8307 66.582 22.2272C67.4049 20.6236 68.5653 19.3893 70.0634 18.5242C71.5614 17.6591 73.3233 17.2266 75.3488 17.2266C77.4799 17.2266 79.305 17.6802 80.8241 18.5875C82.3644 19.4737 83.4194 20.8241 83.989 22.6386L80.0329 24.316C79.6742 23.05 79.1256 22.1533 78.3871 21.6258C77.6486 21.0772 76.6992 20.803 75.5387 20.803C73.8085 20.803 72.4265 21.4254 71.3927 22.6703C70.3799 23.894 69.8735 25.6664 69.8735 27.9873C69.8735 30.2872 70.3588 32.0595 71.3294 33.3044C72.2999 34.5493 73.703 35.1717 75.5387 35.1717C76.6781 35.1717 77.6592 34.8658 78.4821 34.2539C79.3261 33.642 79.9168 32.7136 80.2544 31.4687L84.2739 32.6714Z" fill="black"/>
<path d="M89.7371 20.3282C87.9436 20.3282 87.0469 19.5581 87.0469 18.0178C87.0469 16.4565 87.9436 15.6758 89.7371 15.6758C91.5305 15.6758 92.4273 16.4565 92.4273 18.0178C92.4273 19.5581 91.5305 20.3282 89.7371 20.3282ZM91.8892 22.607V38.4316H87.5533V22.607H91.8892Z" fill="black"/>
<path d="M96.4855 38.4316V22.607H100.252L100.537 25.7086C100.938 24.6325 101.539 23.7991 102.341 23.2083C103.164 22.5964 104.197 22.2905 105.442 22.2905C106.181 22.2905 106.75 22.4065 107.151 22.6386L106.645 26.2783C106.434 26.215 106.17 26.1622 105.854 26.12C105.558 26.0567 105.168 26.0251 104.683 26.0251C104.029 26.0251 103.406 26.1833 102.815 26.4998C102.246 26.7952 101.771 27.2594 101.391 27.8924C101.011 28.5043 100.821 29.2849 100.821 30.2344V38.4316H96.4855Z" fill="black"/>
<path d="M116.713 22.2905C118.823 22.2905 120.458 22.7441 121.618 23.6514C122.8 24.5587 123.581 25.6558 123.96 26.9429L119.909 28.3988C119.487 26.4787 118.443 25.5187 116.776 25.5187C115.573 25.5187 114.635 25.9407 113.959 26.7847C113.305 27.6286 112.978 28.8841 112.978 30.5509C112.978 32.2389 113.316 33.4943 113.991 34.3172C114.687 35.1189 115.626 35.5198 116.808 35.5198C118.643 35.5198 119.741 34.5809 120.099 32.7031L124.024 33.969C123.665 35.3827 122.863 36.5326 121.618 37.4188C120.395 38.305 118.802 38.7481 116.839 38.7481C115.194 38.7481 113.748 38.421 112.503 37.7669C111.28 37.1128 110.33 36.1739 109.655 34.9502C108.98 33.7264 108.642 32.2494 108.642 30.5193C108.642 28.7891 108.98 27.3121 109.655 26.0884C110.351 24.8646 111.301 23.9257 112.503 23.2716C113.727 22.6175 115.13 22.2905 116.713 22.2905Z" fill="black"/>
<path d="M134.609 22.2905C136.191 22.2905 137.595 22.6175 138.818 23.2716C140.042 23.9257 140.992 24.8646 141.667 26.0884C142.363 27.3121 142.711 28.7891 142.711 30.5193C142.711 32.2494 142.363 33.7264 141.667 34.9502C140.992 36.1739 140.042 37.1128 138.818 37.7669C137.595 38.421 136.191 38.7481 134.609 38.7481C133.005 38.7481 131.592 38.421 130.368 37.7669C129.165 37.1128 128.216 36.1739 127.52 34.9502C126.844 33.7264 126.507 32.2494 126.507 30.5193C126.507 28.7891 126.844 27.3121 127.52 26.0884C128.216 24.8646 129.165 23.9257 130.368 23.2716C131.592 22.6175 133.005 22.2905 134.609 22.2905ZM134.609 25.5187C133.427 25.5187 132.499 25.9407 131.824 26.7847C131.17 27.6075 130.843 28.8524 130.843 30.5193C130.843 32.1861 131.17 33.4415 131.824 34.2855C132.499 35.1084 133.427 35.5198 134.609 35.5198C135.769 35.5198 136.677 35.1084 137.331 34.2855C138.006 33.4415 138.344 32.1861 138.344 30.5193C138.344 28.8524 138.006 27.6075 137.331 26.7847C136.677 25.9407 135.769 25.5187 134.609 25.5187Z" fill="black"/>
<path d="M153.555 22.2905C155.138 22.2905 156.541 22.6175 157.765 23.2716C158.988 23.9257 159.938 24.8646 160.613 26.0884C161.309 27.3121 161.657 28.7891 161.657 30.5193C161.657 32.2494 161.309 33.7264 160.613 34.9502C159.938 36.1739 158.988 37.1128 157.765 37.7669C156.541 38.421 155.138 38.7481 153.555 38.7481C151.952 38.7481 150.538 38.421 149.314 37.7669C148.112 37.1128 147.162 36.1739 146.466 34.9502C145.791 33.7264 145.453 32.2494 145.453 30.5193C145.453 28.7891 145.791 27.3121 146.466 26.0884C147.162 24.8646 148.112 23.9257 149.314 23.2716C150.538 22.6175 151.952 22.2905 153.555 22.2905ZM153.555 25.5187C152.374 25.5187 151.445 25.9407 150.77 26.7847C150.116 27.6075 149.789 28.8524 149.789 30.5193C149.789 32.1861 150.116 33.4415 150.77 34.2855C151.445 35.1084 152.374 35.5198 153.555 35.5198C154.716 35.5198 155.623 35.1084 156.277 34.2855C156.952 33.4415 157.29 32.1861 157.29 30.5193C157.29 28.8524 156.952 27.6075 156.277 26.7847C155.623 25.9407 154.716 25.5187 153.555 25.5187Z" fill="black"/>
<path d="M169.558 15.6758V33.5576C169.558 34.2961 169.685 34.813 169.938 35.1084C170.191 35.4038 170.613 35.5515 171.204 35.5515C171.563 35.5515 171.858 35.5304 172.09 35.4882C172.322 35.446 172.618 35.3616 172.976 35.235L172.596 38.0834C172.238 38.2944 171.784 38.4527 171.235 38.5582C170.708 38.6848 170.181 38.7481 169.653 38.7481C168.113 38.7481 166.984 38.3788 166.267 37.6403C165.57 36.8808 165.222 35.6781 165.222 34.0323V15.6758H169.558Z" fill="black"/>
<path d="M182.735 38.7481C180.245 38.7481 178.251 38.0307 176.753 36.5959C175.255 35.14 174.506 33.1145 174.506 30.5193C174.506 28.7891 174.844 27.3121 175.519 26.0884C176.194 24.8646 177.133 23.9257 178.336 23.2716C179.559 22.6175 180.952 22.2905 182.513 22.2905C184.117 22.2905 185.478 22.6175 186.596 23.2716C187.714 23.9046 188.569 24.7802 189.16 25.8985C189.75 26.9956 190.046 28.2511 190.046 29.6647C190.046 30.0867 190.035 30.4876 190.014 30.8674C189.993 31.2472 189.961 31.5848 189.919 31.8802H178.747C178.916 33.1039 179.338 34.0218 180.013 34.6337C180.709 35.2244 181.606 35.5198 182.703 35.5198C183.632 35.5198 184.381 35.3405 184.95 34.9818C185.52 34.6231 185.963 34.1273 186.28 33.4943L189.729 34.8236C189.223 36.0684 188.337 37.039 187.071 37.7353C185.805 38.4105 184.359 38.7481 182.735 38.7481ZM182.482 25.487C180.435 25.487 179.201 26.6159 178.779 28.8735H185.9C185.773 27.7763 185.414 26.9429 184.824 26.3732C184.254 25.7824 183.473 25.487 182.482 25.487Z" fill="black"/>
<path d="M200.05 38.7481C198.447 38.7481 196.98 38.4632 195.651 37.8935C194.343 37.3238 193.277 36.5221 192.454 35.4882L194.955 32.9563C195.461 33.7158 196.136 34.3383 196.98 34.8236C197.824 35.3088 198.826 35.5515 199.987 35.5515C200.81 35.5515 201.464 35.4354 201.949 35.2033C202.455 34.9502 202.709 34.5598 202.709 34.0323C202.709 33.6947 202.593 33.4099 202.361 33.1778C202.128 32.9246 201.664 32.7242 200.968 32.5765L198.183 32.0068C196.347 31.627 195.039 31.0573 194.258 30.2977C193.499 29.517 193.119 28.5148 193.119 27.291C193.119 26.426 193.372 25.6136 193.879 24.8541C194.406 24.0945 195.187 23.4826 196.221 23.0184C197.254 22.5331 198.542 22.2905 200.082 22.2905C203.289 22.2905 205.589 23.2716 206.981 25.2338L204.386 27.7658C203.922 27.0273 203.31 26.4682 202.55 26.0884C201.812 25.6875 201.031 25.487 200.208 25.487C198.352 25.487 197.423 26.004 197.423 27.0378C197.423 27.3754 197.571 27.6708 197.866 27.924C198.162 28.1561 198.7 28.3566 199.48 28.5254L202.709 29.19C204.27 29.5065 205.388 30.0445 206.063 30.8041C206.739 31.5426 207.076 32.4393 207.076 33.4943C207.076 35.0134 206.464 36.2689 205.241 37.2605C204.038 38.2522 202.308 38.7481 200.05 38.7481Z" fill="black"/>
</svg>
