<svg width="272" height="47" viewBox="0 0 272 47" fill="none" xmlns="http://www.w3.org/2000/svg">
<path d="M21.1601 6.9082H28.3685V41.555H22.7878L7.2084 20.5809V41.555H0V6.9082H5.53419L21.1601 27.7428V6.9082Z" fill="#FDFCFC"/>
<path d="M86.0288 15.6048C93.2372 15.6048 98.9109 21.418 98.9109 28.8589C98.9109 36.2534 93.3767 42.1131 85.9823 42.1131C82.8664 42.1131 80.0761 41.09 78.2624 39.1367V41.555H71.7515V6.9082H78.7274V18.3021C80.4481 16.5814 83.006 15.6048 86.0288 15.6048ZM85.1452 35.8348C88.9587 35.8348 91.7025 32.9515 91.7025 28.8589C91.7025 24.8129 88.9587 21.8831 85.1452 21.8831C81.3782 21.8831 78.7274 24.7664 78.7274 28.8589C78.7274 32.998 81.3782 35.8348 85.1452 35.8348Z" fill="#FDFCFC"/>
<path d="M105.255 41.555V6.9082H112.231V41.555H105.255Z" fill="#FDFCFC"/>
<path d="M144 28.1148C144 29.138 143.907 30.1146 143.674 30.8122H125.816C126.235 34.0211 128.514 36.0673 131.955 36.0673C134.42 36.0673 136.234 34.9977 137.21 33.277L142.791 35.9278C141.256 39.6483 137.071 42.1131 131.862 42.1131C123.816 42.1131 118.561 36.1603 118.561 28.8124C118.561 21.232 124.142 15.6048 131.397 15.6048C138.512 15.6048 144 21.0925 144 28.1148ZM125.956 25.6965H136.606C136.327 22.9992 134.28 21.1855 131.397 21.1855C128.653 21.1855 126.653 22.7667 125.956 25.6965Z" fill="#FDFCFC"/>
<path d="M45.0251 21.2041C44.8193 21.5233 44.4811 21.7389 44.1016 21.754C43.1107 21.7934 42.1392 21.6522 41.1872 21.3305C40.0443 20.9444 39.0285 20.3547 38.14 19.5616C37.2788 18.7583 36.644 17.8082 36.2356 16.7114C35.5924 14.9839 35.4539 13.3963 35.8202 11.9486C36.214 10.4906 36.9343 9.23888 37.9812 8.19337C39.0555 7.13766 40.3056 6.34433 41.7314 5.81338C42.3621 5.57853 43.0543 5.38321 43.8081 5.22742C44.0196 5.18371 44.2305 5.14511 44.4409 5.11164C45.3481 4.96732 46.1451 5.64596 46.2726 6.55565C46.4127 7.55634 45.6967 8.4699 44.7104 8.68966C44.6998 8.69203 44.6891 8.69441 44.6785 8.69679C44.0446 8.83917 43.4809 9.00225 42.9873 9.18604C42.0002 9.55362 41.1892 10.0586 40.5541 10.7009C39.9191 11.3433 39.4997 12.0615 39.2958 12.8555C39.0817 13.6221 39.1278 14.4167 39.4341 15.2393C39.7098 15.9797 40.1656 16.5749 40.8016 17.025C41.4547 17.4374 42.192 17.7405 43.0134 17.9342C43.8247 18.1004 44.6139 18.1656 45.3811 18.1297C45.9662 18.0807 46.5402 18.8542 46.222 19.3477L45.0251 21.2041Z" fill="url(#paint0_linear_40432_2769)"/>
<mask id="path-3-inside-1_40432_2769" fill="white">
<path d="M64.0353 32.5904C65.1787 32.9183 65.8551 34.1217 65.35 35.1987C64.3388 37.3549 62.7701 39.2182 60.7895 40.5858C58.2145 42.3638 55.1027 43.194 51.9843 42.9349C48.8659 42.6758 45.9338 41.3434 43.6877 39.1648C41.4415 36.9862 40.0202 34.0962 39.666 30.9871C39.3117 27.8781 40.0465 24.7424 41.745 22.1144C43.4435 19.4863 46.0008 17.5285 48.981 16.5746C51.9611 15.6206 55.1799 15.7295 58.0888 16.8827C60.3263 17.7697 62.274 19.2324 63.7443 21.1058C64.4787 22.0416 64.0904 23.3663 63.05 23.943C62.0096 24.5197 60.7143 24.1205 59.9123 23.2419C58.975 22.2151 57.811 21.4065 56.5013 20.8872C54.5188 20.1013 52.3252 20.0271 50.2942 20.6773C48.2632 21.3274 46.5205 22.6616 45.3629 24.4527C44.2054 26.2437 43.7046 28.3807 43.9461 30.4995C44.1875 32.6183 45.1561 34.5878 46.6869 36.0726C48.2176 37.5573 50.2159 38.4653 52.3411 38.6419C54.4663 38.8185 56.5869 38.2527 58.3418 37.041C59.5011 36.2405 60.4534 35.1907 61.1357 33.9794C61.7195 32.9429 62.8918 32.2625 64.0353 32.5904Z"/>
</mask>
<path d="M64.0353 32.5904C65.1787 32.9183 65.8551 34.1217 65.35 35.1987C64.3388 37.3549 62.7701 39.2182 60.7895 40.5858C58.2145 42.3638 55.1027 43.194 51.9843 42.9349C48.8659 42.6758 45.9338 41.3434 43.6877 39.1648C41.4415 36.9862 40.0202 34.0962 39.666 30.9871C39.3117 27.8781 40.0465 24.7424 41.745 22.1144C43.4435 19.4863 46.0008 17.5285 48.981 16.5746C51.9611 15.6206 55.1799 15.7295 58.0888 16.8827C60.3263 17.7697 62.274 19.2324 63.7443 21.1058C64.4787 22.0416 64.0904 23.3663 63.05 23.943C62.0096 24.5197 60.7143 24.1205 59.9123 23.2419C58.975 22.2151 57.811 21.4065 56.5013 20.8872C54.5188 20.1013 52.3252 20.0271 50.2942 20.6773C48.2632 21.3274 46.5205 22.6616 45.3629 24.4527C44.2054 26.2437 43.7046 28.3807 43.9461 30.4995C44.1875 32.6183 45.1561 34.5878 46.6869 36.0726C48.2176 37.5573 50.2159 38.4653 52.3411 38.6419C54.4663 38.8185 56.5869 38.2527 58.3418 37.041C59.5011 36.2405 60.4534 35.1907 61.1357 33.9794C61.7195 32.9429 62.8918 32.2625 64.0353 32.5904Z" stroke="url(#paint1_linear_40432_2769)" stroke-width="4.78772" mask="url(#path-3-inside-1_40432_2769)"/>
<circle cx="64.2681" cy="28.2067" r="1.43632" transform="rotate(16 64.2681 28.2067)" stroke="url(#paint2_linear_40432_2769)" stroke-width="0.957545"/>
<circle cx="51.3658" cy="6.32776" r="1.43632" transform="rotate(16 51.3658 6.32776)" stroke="url(#paint3_linear_40432_2769)" stroke-width="0.957545"/>
<circle cx="203.97" cy="8.87269" r="2.53684" stroke="url(#paint4_linear_40432_2769)" stroke-width="1.69123"/>
<path d="M185.299 5.49023H192.275V40.1371H185.066V17.8143L174.602 31.301H173.672L163.208 17.3027V40.1371H156V5.49023H162.976L174.091 20.1396L185.299 5.49023Z" fill="#FDFCFC"/>
<path d="M200.483 40.1371V14.7449H207.459V40.1371H200.483Z" fill="#FDFCFC"/>
<path d="M228.811 14.1868C234.531 14.1868 238.438 18.0468 238.438 23.8135V40.1371H231.462V25.3017C231.462 22.3718 229.555 20.4651 226.811 20.4651C224.067 20.4651 222.161 22.3718 222.161 25.3017V40.1371H215.185V14.7449H221.695V17.8143C222.998 15.3495 225.602 14.1868 228.811 14.1868Z" fill="#FDFCFC"/>
<path d="M264.479 5.49023H271.455V40.1371H264.944V37.7188C263.13 39.672 260.34 40.6951 257.224 40.6951C249.83 40.6951 244.296 34.8354 244.296 27.441C244.296 20 249.969 14.1868 257.178 14.1868C260.201 14.1868 262.758 15.1634 264.479 16.8842V5.49023ZM258.061 34.4168C261.828 34.4168 264.479 31.58 264.479 27.441C264.479 23.3485 261.828 20.4651 258.061 20.4651C254.248 20.4651 251.504 23.395 251.504 27.441C251.504 31.5335 254.248 34.4168 258.061 34.4168Z" fill="#FDFCFC"/>
<defs>
<linearGradient id="paint0_linear_40432_2769" x1="34.4561" y1="1.24473" x2="87.3731" y2="20.3714" gradientUnits="userSpaceOnUse">
<stop stop-color="#A854E9"/>
<stop offset="1" stop-color="#4F91FC"/>
</linearGradient>
<linearGradient id="paint1_linear_40432_2769" x1="49.2491" y1="5.02742" x2="110.196" y2="98.4312" gradientUnits="userSpaceOnUse">
<stop stop-color="#A854E9"/>
<stop offset="1" stop-color="#4F91FC"/>
</linearGradient>
<linearGradient id="paint2_linear_40432_2769" x1="62.79" y1="25.0322" x2="74.7307" y2="35.3666" gradientUnits="userSpaceOnUse">
<stop stop-color="#A854E9"/>
<stop offset="1" stop-color="#4F91FC"/>
</linearGradient>
<linearGradient id="paint3_linear_40432_2769" x1="49.8876" y1="3.1533" x2="61.8283" y2="13.4876" gradientUnits="userSpaceOnUse">
<stop stop-color="#A854E9"/>
<stop offset="1" stop-color="#4F91FC"/>
</linearGradient>
<linearGradient id="paint4_linear_40432_2769" x1="201.36" y1="3.26592" x2="222.449" y2="21.5186" gradientUnits="userSpaceOnUse">
<stop stop-color="#A854E9"/>
<stop offset="1" stop-color="#4F91FC"/>
</linearGradient>
</defs>
</svg>
