<svg width="166" height="55" viewBox="0 0 166 55" fill="none" xmlns="http://www.w3.org/2000/svg">
<path d="M15.0085 25.2289C15.938 21.7607 19.5029 18.1958 22.9711 17.2663L44.5931 11.4719C48.0612 10.5424 50.1193 12.6005 49.1899 16.0686L43.3954 37.6907C42.4659 41.1588 38.901 44.7238 35.4328 45.6532L13.8108 51.4477C10.3427 52.3771 8.28462 50.3191 9.21405 46.8509L15.0085 25.2289Z" fill="#9E77ED"/>
<path d="M6.34056 16.5609C7.26999 13.0927 10.8349 9.5278 14.3031 8.59837L35.9251 2.80389C39.3933 1.87446 41.4513 3.9325 40.5219 7.40065L34.7274 29.0227C33.798 32.4908 30.2331 36.0558 26.7649 36.9852L5.14285 42.7797C1.67469 43.7091 -0.383351 41.6511 0.546077 38.1829L6.34056 16.5609Z" fill="#6941C6"/>
<path d="M69.2799 35.52H76.7174V38.4317H65.6719V16.4355H69.2799V35.52Z" fill="black"/>
<path d="M78.5321 29.6333C78.5321 27.882 78.8908 26.3312 79.6082 24.9808C80.3466 23.6305 81.3383 22.586 82.5832 21.8476C83.8491 21.088 85.2417 20.7082 86.7609 20.7082C88.1323 20.7082 89.3245 20.9825 90.3372 21.5311C91.3711 22.0586 92.194 22.7232 92.8059 23.525V20.993H96.4455V38.4317H92.8059V35.8365C92.194 36.6594 91.3606 37.3451 90.3056 37.8937C89.2506 38.4423 88.0479 38.7166 86.6976 38.7166C85.1995 38.7166 83.828 38.3368 82.5832 37.5772C81.3383 36.7965 80.3466 35.7205 79.6082 34.349C78.8908 32.9564 78.5321 31.3845 78.5321 29.6333ZM92.8059 29.6966C92.8059 28.4939 92.5527 27.4495 92.0463 26.5633C91.561 25.6771 90.9175 25.0019 90.1157 24.5377C89.3139 24.0736 88.4488 23.8415 87.5205 23.8415C86.5921 23.8415 85.727 24.0736 84.9252 24.5377C84.1234 24.9808 83.4694 25.6455 82.963 26.5316C82.4777 27.3967 82.235 28.4306 82.235 29.6333C82.235 30.8359 82.4777 31.8909 82.963 32.7982C83.4694 33.7055 84.1234 34.4017 84.9252 34.887C85.7481 35.3512 86.6132 35.5833 87.5205 35.5833C88.4488 35.5833 89.3139 35.3512 90.1157 34.887C90.9175 34.4228 91.561 33.7477 92.0463 32.8615C92.5527 31.9542 92.8059 30.8992 92.8059 29.6966Z" fill="black"/>
<path d="M116.883 20.993L106.185 46.6289H102.45L105.995 38.1469L99.1273 20.993H103.147L108.052 34.2857L113.148 20.993H116.883Z" fill="black"/>
<path d="M135.588 29.2851C135.588 29.9392 135.546 30.53 135.462 31.0575H122.137C122.243 32.45 122.76 33.5683 123.688 34.4123C124.616 35.2563 125.756 35.6783 127.106 35.6783C129.047 35.6783 130.419 34.8659 131.221 33.2413H135.113C134.586 34.8448 133.626 36.1636 132.233 37.1974C130.862 38.2102 129.153 38.7166 127.106 38.7166C125.439 38.7166 123.941 38.3473 122.612 37.6089C121.304 36.8493 120.27 35.7943 119.51 34.4439C118.772 33.0725 118.403 31.49 118.403 29.6966C118.403 27.9031 118.761 26.3312 119.479 24.9808C120.217 23.6094 121.241 22.5544 122.549 21.8159C123.878 21.0774 125.397 20.7082 127.106 20.7082C128.752 20.7082 130.218 21.0669 131.505 21.7843C132.792 22.5016 133.795 23.5144 134.512 24.8226C135.229 26.1097 135.588 27.5972 135.588 29.2851ZM131.822 28.1458C131.801 26.8165 131.326 25.751 130.398 24.9492C129.469 24.1474 128.319 23.7465 126.948 23.7465C125.703 23.7465 124.638 24.1474 123.751 24.9492C122.865 25.7299 122.338 26.7954 122.169 28.1458H131.822Z" fill="black"/>
<path d="M142.747 23.525C143.274 22.6388 143.971 21.9531 144.836 21.4678C145.722 20.9614 146.766 20.7082 147.969 20.7082V24.4428H147.051C145.637 24.4428 144.561 24.8015 143.823 25.5189C143.106 26.2363 142.747 27.4811 142.747 29.2535V38.4317H139.139V20.993H142.747V23.525Z" fill="black"/>
<path d="M157.615 38.7166C156.244 38.7166 155.009 38.4739 153.912 37.9887C152.836 37.4823 151.982 36.8071 151.349 35.9631C150.716 35.098 150.378 34.138 150.336 33.083H154.071C154.134 33.8215 154.482 34.4439 155.115 34.9503C155.769 35.4356 156.581 35.6783 157.552 35.6783C158.565 35.6783 159.345 35.4884 159.894 35.1086C160.464 34.7077 160.749 34.2013 160.749 33.5894C160.749 32.9353 160.432 32.45 159.799 32.1336C159.187 31.8171 158.206 31.4689 156.856 31.0891C155.548 30.7304 154.482 30.3823 153.659 30.0447C152.836 29.7071 152.119 29.1902 151.507 28.4939C150.916 27.7976 150.621 26.8798 150.621 25.7404C150.621 24.812 150.895 23.9681 151.444 23.2085C151.992 22.4278 152.773 21.8159 153.786 21.3728C154.82 20.9297 156.001 20.7082 157.33 20.7082C159.314 20.7082 160.907 21.2146 162.109 22.2274C163.333 23.219 163.987 24.5799 164.072 26.3101H160.464C160.4 25.5294 160.084 24.907 159.514 24.4428C158.945 23.9786 158.174 23.7465 157.204 23.7465C156.254 23.7465 155.526 23.9259 155.02 24.2846C154.514 24.6432 154.26 25.118 154.26 25.7088C154.26 26.173 154.429 26.5633 154.767 26.8798C155.104 27.1963 155.516 27.4495 156.001 27.6394C156.486 27.8082 157.204 28.0297 158.153 28.304C159.419 28.6416 160.453 28.9897 161.255 29.3484C162.078 29.686 162.785 30.1924 163.375 30.8676C163.966 31.5428 164.272 32.4395 164.293 33.5578C164.293 34.5494 164.019 35.4356 163.47 36.2163C162.922 36.997 162.141 37.6089 161.128 38.052C160.137 38.495 158.966 38.7166 157.615 38.7166Z" fill="black"/>
</svg>
