<svg width="91" height="54" viewBox="0 0 91 54" fill="none" xmlns="http://www.w3.org/2000/svg">
<path d="M13.372 4.36523H17.9273V26.2601H14.4006L4.55531 13.0056V26.2601H0V4.36523H3.4973L13.372 17.5315V4.36523Z" fill="black"/>
<path d="M54.3654 9.86099C58.9207 9.86099 62.5062 13.5346 62.5062 18.2369C62.5062 22.9097 59.0089 26.6128 54.3361 26.6128C52.367 26.6128 50.6036 25.9662 49.4575 24.7319V26.2601H45.343V4.36523H49.7514V11.5656C50.8387 10.4782 52.4552 9.86099 54.3654 9.86099ZM53.807 22.6452C56.2169 22.6452 57.9509 20.8231 57.9509 18.2369C57.9509 15.68 56.2169 13.8285 53.807 13.8285C51.4265 13.8285 49.7514 15.6506 49.7514 18.2369C49.7514 20.8525 51.4265 22.6452 53.807 22.6452Z" fill="black"/>
<path d="M66.5154 26.2601V4.36523H70.9237V26.2601H66.5154Z" fill="black"/>
<path d="M91 17.7667C91 18.4132 90.9412 19.0304 90.7943 19.4712H79.5089C79.7734 21.4991 81.2134 22.7922 83.3882 22.7922C84.9459 22.7922 86.092 22.1162 86.7092 21.0288L90.2359 22.704C89.266 25.0551 86.621 26.6128 83.3295 26.6128C78.2451 26.6128 74.9242 22.851 74.9242 18.2075C74.9242 13.4171 78.4509 9.86099 83.0356 9.86099C87.5321 9.86099 91 13.3289 91 17.7667ZM79.597 16.2384H86.3271C86.1508 14.5339 84.8577 13.3877 83.0356 13.3877C81.3016 13.3877 80.0379 14.3869 79.597 16.2384Z" fill="black"/>
<path d="M28.4526 13.3993C28.3226 13.601 28.1088 13.7372 27.869 13.7467C27.2428 13.7717 26.6289 13.6825 26.0273 13.4792C25.305 13.2351 24.6631 12.8625 24.1016 12.3613C23.5574 11.8536 23.1563 11.2532 22.8982 10.5601C22.4917 9.46847 22.4042 8.46519 22.6357 7.55029C22.8845 6.62894 23.3397 5.83792 24.0013 5.17722C24.6802 4.51006 25.4702 4.00872 26.3712 3.67319C26.7698 3.52478 27.2072 3.40135 27.6835 3.3029C27.8172 3.27527 27.9505 3.25088 28.0834 3.22973C28.6567 3.13853 29.1604 3.56739 29.241 4.14226C29.3295 4.77465 28.877 5.35196 28.2538 5.49084C28.247 5.49234 28.2403 5.49384 28.2336 5.49535C27.833 5.58532 27.4768 5.68838 27.1649 5.80452C26.5411 6.03681 26.0285 6.35593 25.6272 6.76186C25.2259 7.16779 24.9609 7.62165 24.832 8.12343C24.6967 8.60789 24.7259 9.11004 24.9194 9.62987C25.0937 10.0977 25.3817 10.4739 25.7836 10.7583C26.1963 11.0189 26.6623 11.2105 27.1814 11.3328C27.694 11.4379 28.1928 11.4791 28.6776 11.4564C29.0474 11.4255 29.4101 11.9142 29.209 12.2261L28.4526 13.3993Z" fill="url(#paint0_linear_40432_2418)"/>
<mask id="path-3-inside-1_40432_2418" fill="white">
<path d="M40.4662 20.5958C41.1888 20.803 41.6162 21.5635 41.297 22.2441C40.658 23.6067 39.6667 24.7842 38.415 25.6485C36.7878 26.7721 34.8213 27.2967 32.8507 27.1329C30.88 26.9692 29.0271 26.1272 27.6076 24.7505C26.1882 23.3737 25.29 21.5474 25.0661 19.5826C24.8423 17.6179 25.3066 15.6363 26.38 13.9755C27.4534 12.3148 29.0694 11.0775 30.9527 10.4747C32.836 9.87183 34.8701 9.94064 36.7084 10.6694C38.1223 11.2299 39.3532 12.1543 40.2823 13.3382C40.7464 13.9296 40.501 14.7667 39.8436 15.1312C39.1861 15.4956 38.3675 15.2433 37.8607 14.6881C37.2684 14.0392 36.5328 13.5282 35.7051 13.2001C34.4523 12.7034 33.0661 12.6565 31.7826 13.0674C30.4991 13.4782 29.3978 14.3214 28.6663 15.4532C27.9348 16.585 27.6184 17.9355 27.7709 19.2745C27.9235 20.6134 28.5356 21.8581 29.5029 22.7963C30.4703 23.7346 31.7331 24.3084 33.0761 24.42C34.4191 24.5316 35.7593 24.1741 36.8682 23.4084C37.6009 22.9025 38.2026 22.2391 38.6338 21.4736C39.0027 20.8186 39.7436 20.3886 40.4662 20.5958Z"/>
</mask>
<path d="M40.4662 20.5958C41.1888 20.803 41.6162 21.5635 41.297 22.2441C40.658 23.6067 39.6667 24.7842 38.415 25.6485C36.7878 26.7721 34.8213 27.2967 32.8507 27.1329C30.88 26.9692 29.0271 26.1272 27.6076 24.7505C26.1882 23.3737 25.29 21.5474 25.0661 19.5826C24.8423 17.6179 25.3066 15.6363 26.38 13.9755C27.4534 12.3148 29.0694 11.0775 30.9527 10.4747C32.836 9.87183 34.8701 9.94064 36.7084 10.6694C38.1223 11.2299 39.3532 12.1543 40.2823 13.3382C40.7464 13.9296 40.501 14.7667 39.8436 15.1312C39.1861 15.4956 38.3675 15.2433 37.8607 14.6881C37.2684 14.0392 36.5328 13.5282 35.7051 13.2001C34.4523 12.7034 33.0661 12.6565 31.7826 13.0674C30.4991 13.4782 29.3978 14.3214 28.6663 15.4532C27.9348 16.585 27.6184 17.9355 27.7709 19.2745C27.9235 20.6134 28.5356 21.8581 29.5029 22.7963C30.4703 23.7346 31.7331 24.3084 33.0761 24.42C34.4191 24.5316 35.7593 24.1741 36.8682 23.4084C37.6009 22.9025 38.2026 22.2391 38.6338 21.4736C39.0027 20.8186 39.7436 20.3886 40.4662 20.5958Z" stroke="url(#paint1_linear_40432_2418)" stroke-width="3.02557" mask="url(#path-3-inside-1_40432_2418)"/>
<circle cx="40.613" cy="17.8251" r="0.907672" transform="rotate(16 40.613 17.8251)" stroke="url(#paint2_linear_40432_2418)" stroke-width="0.605115"/>
<circle cx="32.4596" cy="3.99889" r="0.907672" transform="rotate(16 32.4596 3.99889)" stroke="url(#paint3_linear_40432_2418)" stroke-width="0.605115"/>
<circle cx="39.3338" cy="33.6551" r="1.60314" stroke="url(#paint4_linear_40432_2418)" stroke-width="1.06876"/>
<path d="M27.5347 31.5176H31.943V53.4124H27.3877V39.3057L20.7752 47.8285H20.1874L13.5748 38.9824V53.4124H9.01953V31.5176H13.4279L20.4519 40.7751L27.5347 31.5176Z" fill="black"/>
<path d="M37.1305 53.4124V37.366H41.5389V53.4124H37.1305Z" fill="black"/>
<path d="M55.032 37.0133C58.6468 37.0133 61.1155 39.4526 61.1155 43.0969V53.4124H56.7071V44.0373C56.7071 42.1858 55.5022 40.9809 53.7682 40.9809C52.0343 40.9809 50.8293 42.1858 50.8293 44.0373V53.4124H46.421V37.366H50.5354V39.3057C51.3583 37.7481 53.0041 37.0133 55.032 37.0133Z" fill="black"/>
<path d="M77.5723 31.5176H81.9807V53.4124H77.8662V51.8842C76.72 53.1186 74.9567 53.7651 72.9876 53.7651C68.3148 53.7651 64.8175 50.0621 64.8175 45.3892C64.8175 40.687 68.4029 37.0133 72.9582 37.0133C74.8685 37.0133 76.4849 37.6305 77.5723 38.7179V31.5176ZM73.5166 49.7976C75.8971 49.7976 77.5723 48.0049 77.5723 45.3892C77.5723 42.803 75.8971 40.9809 73.5166 40.9809C71.1067 40.9809 69.3728 42.8324 69.3728 45.3892C69.3728 47.9755 71.1067 49.7976 73.5166 49.7976Z" fill="black"/>
<defs>
<linearGradient id="paint0_linear_40432_2418" x1="21.7736" y1="0.78606" x2="55.2142" y2="12.8731" gradientUnits="userSpaceOnUse">
<stop stop-color="#A854E9"/>
<stop offset="1" stop-color="#4F91FC"/>
</linearGradient>
<linearGradient id="paint1_linear_40432_2418" x1="31.1222" y1="3.17754" x2="69.6369" y2="62.2035" gradientUnits="userSpaceOnUse">
<stop stop-color="#A854E9"/>
<stop offset="1" stop-color="#4F91FC"/>
</linearGradient>
<linearGradient id="paint2_linear_40432_2418" x1="39.6789" y1="15.819" x2="47.2247" y2="22.3497" gradientUnits="userSpaceOnUse">
<stop stop-color="#A854E9"/>
<stop offset="1" stop-color="#4F91FC"/>
</linearGradient>
<linearGradient id="paint3_linear_40432_2418" x1="31.5255" y1="1.9928" x2="39.0714" y2="8.52354" gradientUnits="userSpaceOnUse">
<stop stop-color="#A854E9"/>
<stop offset="1" stop-color="#4F91FC"/>
</linearGradient>
<linearGradient id="paint4_linear_40432_2418" x1="37.684" y1="30.1119" x2="51.0116" y2="41.6466" gradientUnits="userSpaceOnUse">
<stop stop-color="#A854E9"/>
<stop offset="1" stop-color="#4F91FC"/>
</linearGradient>
</defs>
</svg>
