<svg width="68" height="67" viewBox="0 0 68 67" fill="none" xmlns="http://www.w3.org/2000/svg">
<path d="M28.0026 31.1089C27.7085 31.565 27.2251 31.8731 26.6828 31.8947C25.2668 31.951 23.8785 31.7493 22.518 31.2896C20.8847 30.7377 19.4331 29.8951 18.1633 28.7617C16.9327 27.6137 16.0256 26.256 15.4419 24.6886C14.5227 22.22 14.3248 19.9512 14.8483 17.8823C15.411 15.7988 16.4404 14.01 17.9365 12.5159C19.4717 11.0072 21.2582 9.8735 23.2958 9.11474C24.197 8.77914 25.1862 8.50002 26.2634 8.27738C26.5656 8.21491 26.8671 8.15976 27.1677 8.11193C28.4641 7.90569 29.6032 8.87549 29.7853 10.1755C29.9856 11.6055 28.9623 12.9111 27.5528 13.2251C27.5377 13.2285 27.5225 13.2319 27.5073 13.2353C26.6014 13.4388 25.7958 13.6718 25.0905 13.9345C23.6799 14.4598 22.5208 15.1814 21.6133 16.0993C20.7058 17.0173 20.1064 18.0436 19.8151 19.1784C19.5091 20.2739 19.575 21.4094 20.0128 22.585C20.4067 23.643 21.0581 24.4935 21.9669 25.1367C22.9003 25.7261 23.9539 26.1592 25.1278 26.436C26.2871 26.6736 27.4149 26.7667 28.5113 26.7154C29.3475 26.6454 30.1677 27.7508 29.713 28.456L28.0026 31.1089Z" fill="url(#paint0_linear_40432_2488)"/>
<mask id="path-2-inside-1_40432_2488" fill="white">
<path d="M55.1698 47.3807C56.8039 47.8492 57.7704 49.569 57.0486 51.1081C55.6036 54.1894 53.3618 56.8522 50.5314 58.8066C46.8516 61.3474 42.4047 62.5338 37.9484 62.1635C33.492 61.7932 29.3019 59.8891 26.092 56.7758C22.8821 53.6625 20.851 49.5325 20.3447 45.0895C19.8385 40.6465 20.8885 36.1654 23.3158 32.4098C25.7431 28.6542 29.3975 25.8564 33.6564 24.4931C37.9152 23.1299 42.515 23.2855 46.672 24.9334C49.8695 26.201 52.6529 28.2913 54.754 30.9686C55.8035 32.3059 55.2486 34.1989 53.7618 35.0231C52.275 35.8472 50.4239 35.2767 49.2779 34.0212C47.9384 32.5538 46.275 31.3982 44.4033 30.6562C41.5703 29.5331 38.4355 29.4271 35.5331 30.3561C32.6307 31.2852 30.1402 33.1919 28.486 35.7514C26.8318 38.3108 26.1162 41.3647 26.4612 44.3926C26.8062 47.4205 28.1904 50.2351 30.378 52.3569C32.5655 54.4786 35.4211 55.7762 38.4581 56.0286C41.4952 56.2809 44.5257 55.4724 47.0335 53.7408C48.6903 52.5968 50.0511 51.0967 51.0261 49.3656C51.8604 47.8844 53.5357 46.9121 55.1698 47.3807Z"/>
</mask>
<path d="M55.1698 47.3807C56.8039 47.8492 57.7704 49.569 57.0486 51.1081C55.6036 54.1894 53.3618 56.8522 50.5314 58.8066C46.8516 61.3474 42.4047 62.5338 37.9484 62.1635C33.492 61.7932 29.3019 59.8891 26.092 56.7758C22.8821 53.6625 20.851 49.5325 20.3447 45.0895C19.8385 40.6465 20.8885 36.1654 23.3158 32.4098C25.7431 28.6542 29.3975 25.8564 33.6564 24.4931C37.9152 23.1299 42.515 23.2855 46.672 24.9334C49.8695 26.201 52.6529 28.2913 54.754 30.9686C55.8035 32.3059 55.2486 34.1989 53.7618 35.0231C52.275 35.8472 50.4239 35.2767 49.2779 34.0212C47.9384 32.5538 46.275 31.3982 44.4033 30.6562C41.5703 29.5331 38.4355 29.4271 35.5331 30.3561C32.6307 31.2852 30.1402 33.1919 28.486 35.7514C26.8318 38.3108 26.1162 41.3647 26.4612 44.3926C26.8062 47.4205 28.1904 50.2351 30.378 52.3569C32.5655 54.4786 35.4211 55.7762 38.4581 56.0286C41.4952 56.2809 44.5257 55.4724 47.0335 53.7408C48.6903 52.5968 50.0511 51.0967 51.0261 49.3656C51.8604 47.8844 53.5357 46.9121 55.1698 47.3807Z" stroke="url(#paint1_linear_40432_2488)" stroke-width="6.27176" mask="url(#path-2-inside-1_40432_2488)"/>
<circle cx="55.5053" cy="41.1156" r="2.10959" transform="rotate(16 55.5053 41.1156)" stroke="url(#paint2_linear_40432_2488)" stroke-width="1.25435"/>
<circle cx="37.0639" cy="9.84995" r="2.10959" transform="rotate(16 37.0639 9.84995)" stroke="url(#paint3_linear_40432_2488)" stroke-width="1.25435"/>
<defs>
<linearGradient id="paint0_linear_40432_2488" x1="12.8989" y1="2.5859" x2="88.5203" y2="29.919" gradientUnits="userSpaceOnUse">
<stop stop-color="#A854E9"/>
<stop offset="1" stop-color="#4F91FC"/>
</linearGradient>
<linearGradient id="paint1_linear_40432_2488" x1="34.0396" y1="7.99165" x2="121.135" y2="141.471" gradientUnits="userSpaceOnUse">
<stop stop-color="#A854E9"/>
<stop offset="1" stop-color="#4F91FC"/>
</linearGradient>
<linearGradient id="paint2_linear_40432_2488" x1="53.393" y1="36.5791" x2="70.4569" y2="51.3475" gradientUnits="userSpaceOnUse">
<stop stop-color="#A854E9"/>
<stop offset="1" stop-color="#4F91FC"/>
</linearGradient>
<linearGradient id="paint3_linear_40432_2488" x1="34.9516" y1="5.31347" x2="52.0154" y2="20.0818" gradientUnits="userSpaceOnUse">
<stop stop-color="#A854E9"/>
<stop offset="1" stop-color="#4F91FC"/>
</linearGradient>
</defs>
</svg>
