<svg width="212" height="55" viewBox="0 0 212 55" fill="none" xmlns="http://www.w3.org/2000/svg">
<path fill-rule="evenodd" clip-rule="evenodd" d="M24.8672 41.2184C32.6497 41.2184 38.9587 34.9095 38.9587 27.127C38.9587 19.3445 32.6497 13.0356 24.8672 13.0356C17.0847 13.0356 10.7758 19.3445 10.7758 27.127C10.7758 34.9095 17.0847 41.2184 24.8672 41.2184ZM24.8672 51.9942C38.601 51.9942 49.7345 40.8608 49.7345 27.127C49.7345 13.3932 38.601 2.25977 24.8672 2.25977C11.1334 2.25977 0 13.3932 0 27.127C0 40.8608 11.1334 51.9942 24.8672 51.9942Z" fill="#6938EF"/>
<path d="M25.1547 27.6714C27.7444 25.0818 31.9431 25.0818 34.5328 27.6714L47.4275 40.5662C50.0172 43.1559 50.0172 47.3546 47.4275 49.9442C44.8379 52.5339 40.6392 52.5339 38.0495 49.9442L25.1547 37.0495C22.5651 34.4598 22.5651 30.2611 25.1547 27.6714Z" fill="#F670C7"/>
<path d="M28.7734 40.6709L36.963 48.8605C40.8912 46.6697 44.1638 43.4449 46.4127 39.5541L38.2902 31.4316C36.8635 35.8845 33.2824 39.3731 28.7734 40.6709Z" fill="#6519BA"/>
<path d="M89.8823 40.8051C89.1649 41.6912 88.2893 42.3664 87.2554 42.8306C86.2426 43.2948 85.1243 43.5269 83.9006 43.5269C82.2548 43.5269 80.7673 43.1682 79.438 42.4508C78.1088 41.7545 76.5896 40.5097 74.8805 38.7162C72.8761 38.463 71.0826 37.8195 69.5002 36.7856C67.9388 35.7517 66.715 34.4225 65.8289 32.7978C64.9638 31.152 64.5312 29.3375 64.5312 27.3541C64.5312 25.1809 65.0482 23.2292 66.0821 21.499C67.137 19.7478 68.5823 18.3763 70.418 17.3846C72.2748 16.393 74.3531 15.8971 76.6529 15.8971C78.9527 15.8971 81.0205 16.393 82.8561 17.3846C84.6918 18.3763 86.1371 19.7478 87.1921 21.499C88.2471 23.2292 88.7745 25.1809 88.7745 27.3541C88.7745 29.9283 88.0466 32.1859 86.5907 34.1271C85.156 36.0682 83.2465 37.4186 80.8622 38.1782C81.3897 38.7268 81.8961 39.1171 82.3814 39.3492C82.8878 39.6024 83.4258 39.729 83.9955 39.729C85.367 39.729 86.5696 39.1804 87.6035 38.0832L89.8823 40.8051ZM69.7217 27.3541C69.7217 28.7256 70.0171 29.9494 70.6079 31.0254C71.2198 32.1015 72.0532 32.9455 73.1082 33.5574C74.1632 34.1482 75.3447 34.4436 76.6529 34.4436C77.9611 34.4436 79.1426 34.1482 80.1976 33.5574C81.2526 32.9455 82.0755 32.1015 82.6662 31.0254C83.2781 29.9494 83.5841 28.7256 83.5841 27.3541C83.5841 25.9827 83.2781 24.7589 82.6662 23.6828C82.0755 22.6068 81.2526 21.7733 80.1976 21.1825C79.1426 20.5707 77.9611 20.2647 76.6529 20.2647C75.3447 20.2647 74.1632 20.5707 73.1082 21.1825C72.0532 21.7733 71.2198 22.6068 70.6079 23.6828C70.0171 24.7589 69.7217 25.9827 69.7217 27.3541Z" fill="black"/>
<path d="M109.434 21.4041V38.4314H104.749V36.4058C104.095 37.1443 103.315 37.714 102.407 38.1149C101.5 38.4947 100.519 38.6846 99.4641 38.6846C97.2275 38.6846 95.4552 38.041 94.147 36.754C92.8388 35.4669 92.1847 33.5574 92.1847 31.0254V21.4041H97.122V30.2975C97.122 33.0404 98.2719 34.4119 100.572 34.4119C101.753 34.4119 102.703 34.0321 103.42 33.2725C104.138 32.4919 104.496 31.3419 104.496 29.8228V21.4041H109.434Z" fill="black"/>
<path d="M122.11 38.6846C120.316 38.6846 118.702 38.3153 117.267 37.5768C115.854 36.8173 114.746 35.7728 113.944 34.4436C113.143 33.1143 112.742 31.6057 112.742 29.9177C112.742 28.2298 113.143 26.7212 113.944 25.3919C114.746 24.0626 115.854 23.0287 117.267 22.2903C118.702 21.5307 120.316 21.1509 122.11 21.1509C123.903 21.1509 125.507 21.5307 126.92 22.2903C128.334 23.0287 129.442 24.0626 130.244 25.3919C131.045 26.7212 131.446 28.2298 131.446 29.9177C131.446 31.6057 131.045 33.1143 130.244 34.4436C129.442 35.7728 128.334 36.8173 126.92 37.5768C125.507 38.3153 123.903 38.6846 122.11 38.6846ZM122.11 34.6335C123.376 34.6335 124.41 34.2115 125.211 33.3675C126.034 32.5024 126.446 31.3525 126.446 29.9177C126.446 28.483 126.034 27.3436 125.211 26.4996C124.41 25.6345 123.376 25.202 122.11 25.202C120.844 25.202 119.799 25.6345 118.977 26.4996C118.154 27.3436 117.742 28.483 117.742 29.9177C117.742 31.3525 118.154 32.5024 118.977 33.3675C119.799 34.2115 120.844 34.6335 122.11 34.6335Z" fill="black"/>
<path d="M145.729 37.6085C145.243 37.9672 144.642 38.2415 143.925 38.4314C143.228 38.6002 142.49 38.6846 141.709 38.6846C139.684 38.6846 138.112 38.1676 136.994 37.1337C135.896 36.0999 135.348 34.5807 135.348 32.5763V25.5818H132.721V21.7839H135.348V17.6378H140.285V21.7839H144.526V25.5818H140.285V32.513C140.285 33.2303 140.464 33.7895 140.823 34.1904C141.203 34.5702 141.73 34.7601 142.406 34.7601C143.186 34.7601 143.851 34.5491 144.399 34.1271L145.729 37.6085Z" fill="black"/>
<path d="M148.5 21.4041H153.438V38.4314H148.5V21.4041ZM150.969 19.0304C150.062 19.0304 149.323 18.7667 148.753 18.2392C148.184 17.7117 147.899 17.0576 147.899 16.2769C147.899 15.4962 148.184 14.8422 148.753 14.3147C149.323 13.7872 150.062 13.5234 150.969 13.5234C151.876 13.5234 152.615 13.7766 153.184 14.283C153.754 14.7894 154.039 15.4224 154.039 16.182C154.039 17.0049 153.754 17.6906 153.184 18.2392C152.615 18.7667 151.876 19.0304 150.969 19.0304Z" fill="black"/>
<path d="M174.699 29.981C174.699 30.0443 174.667 30.4874 174.604 31.3103H161.723C161.955 32.3653 162.503 33.1987 163.368 33.8106C164.234 34.4225 165.31 34.7284 166.597 34.7284C167.483 34.7284 168.264 34.6018 168.939 34.3486C169.635 34.0743 170.279 33.6523 170.869 33.0826L173.496 35.9311C171.893 37.7667 169.551 38.6846 166.47 38.6846C164.55 38.6846 162.852 38.3153 161.375 37.5768C159.898 36.8173 158.758 35.7728 157.956 34.4436C157.155 33.1143 156.754 31.6057 156.754 29.9177C156.754 28.2509 157.144 26.7528 157.925 25.4235C158.727 24.0732 159.813 23.0287 161.185 22.2903C162.577 21.5307 164.128 21.1509 165.837 21.1509C167.504 21.1509 169.013 21.5096 170.363 22.227C171.713 22.9444 172.768 23.9782 173.528 25.3286C174.309 26.6579 174.699 28.2087 174.699 29.981ZM165.869 24.8855C164.751 24.8855 163.812 25.202 163.052 25.835C162.292 26.468 161.828 27.333 161.659 28.4302H170.046C169.878 27.3541 169.414 26.4996 168.654 25.8666C167.894 25.2125 166.966 24.8855 165.869 24.8855Z" fill="black"/>
<path d="M188.335 21.1509C190.445 21.1509 192.144 21.7839 193.431 23.0499C194.739 24.3158 195.393 26.1937 195.393 28.6834V38.4314H190.456V29.443C190.456 28.0926 190.16 27.0904 189.57 26.4363C188.979 25.7611 188.124 25.4235 187.006 25.4235C185.761 25.4235 184.769 25.8139 184.031 26.5946C183.292 27.3541 182.923 28.4935 182.923 30.0127V38.4314H177.986V21.4041H182.702V23.398C183.356 22.6806 184.168 22.132 185.139 21.7522C186.109 21.3513 187.175 21.1509 188.335 21.1509Z" fill="black"/>
<path d="M210.851 37.6085C210.365 37.9672 209.764 38.2415 209.047 38.4314C208.35 38.6002 207.612 38.6846 206.831 38.6846C204.806 38.6846 203.234 38.1676 202.116 37.1337C201.018 36.0999 200.47 34.5807 200.47 32.5763V25.5818H197.843V21.7839H200.47V17.6378H205.407V21.7839H209.648V25.5818H205.407V32.513C205.407 33.2303 205.586 33.7895 205.945 34.1904C206.325 34.5702 206.852 34.7601 207.528 34.7601C208.308 34.7601 208.973 34.5491 209.521 34.1271L210.851 37.6085Z" fill="black"/>
</svg>
